<?xml version="1.0" encoding="utf-8"?>
<!-- Designed by Vexels.com - 2017 All Rights Reserved - https://vexels.com/terms-and-conditions/  -->

<svg version="1.1" id="Layer_1" xmlns="http://www.w3.org/2000/svg" xmlns:xlink="http://www.w3.org/1999/xlink" x="0px" y="0px"
	 width="1200px" height="1200px" viewBox="0 0 1200 1200" enable-background="new 0 0 1200 1200" xml:space="preserve">
<g>
	<g>
		<linearGradient id="SVGID_1_" gradientUnits="userSpaceOnUse" x1="600" y1="784.1982" x2="600" y2="435.9606">
			<stop  offset="0" style="stop-color:#CF5B05"/>
			<stop  offset="1" style="stop-color:#F49600"/>
		</linearGradient>
		<path fill="url(#SVGID_1_)" d="M1150,599.974c0,63.899-51.811,125.569-115.702,125.569H165.702
			C101.803,725.544,50,663.873,50,599.974v-1.936c0-63.905,51.803-123.582,115.702-123.582h868.596
			c63.891,0,115.702,59.677,115.702,123.582V599.974z"/>
		<linearGradient id="SVGID_2_" gradientUnits="userSpaceOnUse" x1="599.9996" y1="702.2157" x2="599.9996" y2="341.9597">
			<stop  offset="0" style="stop-color:#CF5B05"/>
			<stop  offset="1" style="stop-color:#F49600"/>
		</linearGradient>
		<path fill="url(#SVGID_2_)" d="M1133.26,599.945c0,61.956-50.233,112.182-112.182,112.182H178.921
			c-61.955,0-112.182-50.226-112.182-112.182v-1.877c0-61.962,50.227-112.182,112.182-112.182h842.158
			c61.948,0,112.182,50.219,112.182,112.182V599.945z"/>
	</g>
	<g>
		<g>
			<path fill="#FEDEBA" d="M498.69,620.059l11.09-1.023c0.862,7.085,3.695,12.263,8.501,15.527
				c4.806,3.264,10.66,4.893,17.561,4.893c7.329,0,12.829-1.461,16.495-4.382c3.663-2.922,5.5-6.478,5.5-10.663
				c0-2.892-0.913-5.405-2.728-7.523c-1.818-2.125-4.302-3.754-7.442-4.893c-3.144-1.139-8.749-2.644-16.82-4.498
				c-5.974-1.359-10.991-2.936-15.06-4.718c-4.064-1.796-7.362-4.382-9.889-7.771c-2.526-3.389-3.786-7.449-3.786-12.196
				c0-5.054,1.216-9.334,3.648-12.84c2.436-3.52,6.084-6.303,10.951-8.37c4.868-2.06,10.349-3.097,16.452-3.097
				c10.656,0,18.773,2.44,24.349,7.304c5.576,4.863,8.549,11.247,8.918,19.128l-11.182,0.832
				c-1.235-11.335-8.41-17.002-21.531-17.002c-13.555,0-20.333,4.44-20.333,13.329c0,2.593,0.829,4.828,2.494,6.705
				c1.662,1.884,3.801,3.286,6.42,4.221c2.615,0.921,6.664,1.994,12.149,3.214c9.74,2.206,16.334,4.104,19.785,5.712
				c3.448,1.6,6.252,3.462,8.41,5.587c2.155,2.125,3.772,4.513,4.85,7.165c1.077,2.644,1.618,5.572,1.618,8.779
				c0,8.253-3.173,14.723-9.52,19.405c-6.343,4.682-14.077,7.019-23.195,7.019c-12.197,0-21.439-2.739-27.725-8.224
				C502.389,636.2,499.062,628.984,498.69,620.059z"/>
			<path fill="#FEDEBA" d="M575.39,648.425l34.064-88.438h12.562l36.269,88.438h-13.387l-10.269-26.804h-37.021l-9.739,26.804
				H575.39z M600.924,612.113h30.061l-9.246-24.496c-3.082-8.194-5.178-14.293-6.281-18.295c-1.132,5.675-2.732,11.284-4.798,16.835
				L600.924,612.113z"/>
			<path fill="#FEDEBA" d="M692.845,648.425l-34.283-88.438h12.694l23.02,64.227c1.666,4.623,3.214,9.458,4.631,14.513
				c1.11-4.076,2.716-8.911,4.813-14.513l23.89-64.227h11.904l-34.596,88.438H692.845z"/>
			<path fill="#FEDEBA" d="M750.331,648.425v-88.438h63.854v10.437h-52.22v27.081h48.889v10.349h-48.889v30.127h54.25v10.444
				H750.331z"/>
		</g>
		<g>
			<path fill="#A85128" d="M498.69,616.341l11.09-1.022c0.862,7.084,3.695,12.262,8.501,15.527
				c4.806,3.265,10.66,4.893,17.561,4.893c7.329,0,12.829-1.461,16.495-4.382c3.663-2.921,5.5-6.478,5.5-10.663
				c0-2.892-0.913-5.404-2.728-7.522c-1.818-2.125-4.302-3.754-7.442-4.893c-3.144-1.14-8.749-2.644-16.82-4.499
				c-5.974-1.358-10.991-2.936-15.06-4.718c-4.064-1.796-7.362-4.382-9.889-7.77c-2.526-3.389-3.786-7.45-3.786-12.197
				c0-5.054,1.216-9.333,3.648-12.84c2.436-3.52,6.084-6.303,10.951-8.369c4.868-2.06,10.349-3.097,16.452-3.097
				c10.656,0,18.773,2.44,24.349,7.304c5.576,4.864,8.549,11.247,8.918,19.128l-11.182,0.832
				c-1.235-11.335-8.41-17.002-21.531-17.002c-13.555,0-20.333,4.44-20.333,13.329c0,2.593,0.829,4.828,2.494,6.705
				c1.662,1.885,3.801,3.287,6.42,4.222c2.615,0.92,6.664,1.994,12.149,3.213c9.74,2.206,16.334,4.105,19.785,5.712
				c3.448,1.6,6.252,3.462,8.41,5.587c2.155,2.125,3.772,4.513,4.85,7.165c1.077,2.644,1.618,5.572,1.618,8.779
				c0,8.253-3.173,14.724-9.52,19.405c-6.343,4.682-14.077,7.019-23.195,7.019c-12.197,0-21.439-2.739-27.725-8.224
				C502.389,632.482,499.062,625.266,498.69,616.341z"/>
			<path fill="#A85128" d="M575.39,644.708l34.064-88.438h12.562l36.269,88.438h-13.387l-10.269-26.804h-37.021l-9.739,26.804
				H575.39z M600.924,608.395h30.061l-9.246-24.496c-3.082-8.195-5.178-14.293-6.281-18.295c-1.132,5.675-2.732,11.284-4.798,16.835
				L600.924,608.395z"/>
			<path fill="#A85128" d="M692.845,644.708l-34.283-88.438h12.694l23.02,64.227c1.666,4.623,3.214,9.458,4.631,14.512
				c1.11-4.075,2.716-8.91,4.813-14.512l23.89-64.227h11.904l-34.596,88.438H692.845z"/>
			<path fill="#A85128" d="M750.331,644.708v-88.438h63.854v10.437h-52.22v27.081h48.889v10.349h-48.889v30.127h54.25v10.444
				H750.331z"/>
		</g>
		<g>
			<linearGradient id="SVGID_3_" gradientUnits="userSpaceOnUse" x1="533.8997" y1="652.4935" x2="533.8997" y2="509.0678">
				<stop  offset="0" style="stop-color:#FABC74"/>
				<stop  offset="1" style="stop-color:#FEDDB0"/>
			</linearGradient>
			<path fill="url(#SVGID_3_)" d="M498.69,617.839l11.09-1.022c0.862,7.084,3.695,12.262,8.501,15.527
				c4.806,3.265,10.66,4.893,17.561,4.893c7.329,0,12.829-1.461,16.495-4.382c3.663-2.921,5.5-6.478,5.5-10.663
				c0-2.892-0.913-5.404-2.728-7.522c-1.818-2.125-4.302-3.754-7.442-4.893c-3.144-1.14-8.749-2.644-16.82-4.499
				c-5.974-1.358-10.991-2.936-15.06-4.718c-4.064-1.796-7.362-4.382-9.889-7.77c-2.526-3.389-3.786-7.45-3.786-12.197
				c0-5.054,1.216-9.333,3.648-12.839c2.436-3.52,6.084-6.303,10.951-8.37c4.868-2.06,10.349-3.097,16.452-3.097
				c10.656,0,18.773,2.44,24.349,7.304c5.576,4.864,8.549,11.247,8.918,19.128l-11.182,0.832
				c-1.235-11.335-8.41-17.002-21.531-17.002c-13.555,0-20.333,4.44-20.333,13.329c0,2.593,0.829,4.828,2.494,6.705
				c1.662,1.884,3.801,3.286,6.42,4.221c2.615,0.921,6.664,1.995,12.149,3.214c9.74,2.206,16.334,4.105,19.785,5.712
				c3.448,1.6,6.252,3.462,8.41,5.587c2.155,2.125,3.772,4.513,4.85,7.165c1.077,2.644,1.618,5.572,1.618,8.779
				c0,8.253-3.173,14.724-9.52,19.405c-6.343,4.682-14.077,7.019-23.195,7.019c-12.197,0-21.439-2.739-27.725-8.224
				C502.389,633.979,499.062,626.763,498.69,617.839z"/>
			<linearGradient id="SVGID_4_" gradientUnits="userSpaceOnUse" x1="616.8377" y1="652.494" x2="616.8377" y2="509.068">
				<stop  offset="0" style="stop-color:#FABC74"/>
				<stop  offset="1" style="stop-color:#FEDDB0"/>
			</linearGradient>
			<path fill="url(#SVGID_4_)" d="M575.39,646.206l34.064-88.438h12.562l36.269,88.438h-13.387l-10.269-26.804h-37.021
				l-9.739,26.804H575.39z M600.924,609.893h30.061l-9.246-24.496c-3.082-8.195-5.178-14.293-6.281-18.295
				c-1.132,5.675-2.732,11.284-4.798,16.835L600.924,609.893z"/>
			<linearGradient id="SVGID_5_" gradientUnits="userSpaceOnUse" x1="699.0384" y1="652.494" x2="699.0384" y2="509.068">
				<stop  offset="0" style="stop-color:#FABC74"/>
				<stop  offset="1" style="stop-color:#FEDDB0"/>
			</linearGradient>
			<path fill="url(#SVGID_5_)" d="M692.845,646.206l-34.283-88.438h12.694l23.02,64.226c1.666,4.623,3.214,9.458,4.631,14.513
				c1.11-4.075,2.716-8.91,4.813-14.513l23.89-64.226h11.904l-34.596,88.438H692.845z"/>
			<linearGradient id="SVGID_6_" gradientUnits="userSpaceOnUse" x1="783.2733" y1="652.494" x2="783.2733" y2="509.068">
				<stop  offset="0" style="stop-color:#FABC74"/>
				<stop  offset="1" style="stop-color:#FEDDB0"/>
			</linearGradient>
			<path fill="url(#SVGID_6_)" d="M750.331,646.206v-88.438h63.854v10.437h-52.22v27.081h48.889v10.348h-48.889v30.127h54.25v10.444
				H750.331z"/>
		</g>
	</g>
	<g>
		<path fill="#FEDEBA" d="M433.784,543.978h-86.616c-7.807,0-14.139,6.332-14.139,14.139v84.502c0,7.8,6.332,14.132,14.139,14.132
			h86.616c7.811,0,14.143-6.332,14.143-14.132v-84.502C447.927,550.311,441.594,543.978,433.784,543.978z M349.95,649.645h-6.449
			v-8.487h6.449V649.645z M438.805,649.645h-6.45v-10.941h6.45V649.645z"/>
		<path fill="#A85128" d="M433.784,539.75h-86.616c-7.807,0-14.139,6.332-14.139,14.132v84.502c0,7.807,6.332,14.139,14.139,14.139
			h86.616c7.811,0,14.143-6.332,14.143-14.139v-84.502C447.927,546.082,441.594,539.75,433.784,539.75z M349.95,650.857h-6.449
			V639.88h6.449V650.857z M438.805,648.52h-6.45v-8.64h6.45V648.52z"/>
		<linearGradient id="SVGID_7_" gradientUnits="userSpaceOnUse" x1="390.4774" y1="573.3972" x2="390.4774" y2="831.6995">
			<stop  offset="0" style="stop-color:#FABC74"/>
			<stop  offset="1" style="stop-color:#FEDDB0"/>
		</linearGradient>
		<path fill="url(#SVGID_7_)" d="M433.784,542.153h-86.616c-7.807,0-14.139,6.331-14.139,14.154v84.487
			c0,7.8,6.332,14.133,14.139,14.133h86.616c7.811,0,14.143-6.332,14.143-14.133v-84.487
			C447.927,548.484,441.594,542.153,433.784,542.153z M349.95,647.826h-6.449v-5.528h6.449V647.826z M438.805,647.826h-6.45v-5.528
			h6.45V647.826z"/>
		<rect x="364.919" y="543.781" fill="#C78B56" width="50.639" height="36.08"/>
		<rect x="352.912" y="586.361" fill="#FEDEBA" width="76.146" height="66.016"/>
	</g>
</g>
</svg>
